<svg aria-hidden="true" style="position:absolute;width:0;height:0" xmlns="http://www.w3.org/2000/svg" overflow="hidden">
    <defs>
        <symbol id="icon-instagram" viewBox="0 0 32 32">
            <path
                d="M31.969 9.408c-.075-1.7-.35-2.869-.744-3.882a7.806 7.806 0 0 0-1.851-2.838A7.867 7.867 0 0 0 26.542.844C25.523.45 24.36.175 22.66.1 20.947.019 20.403 0 16.059 0s-4.888.019-6.595.094c-1.7.075-2.869.35-3.882.744a7.803 7.803 0 0 0-2.838 1.85A7.867 7.867 0 0 0 .9 5.52C.506 6.539.231 7.702.156 9.402c-.081 1.713-.1 2.257-.1 6.601s.019 4.888.094 6.595c.075 1.7.35 2.869.744 3.882a7.895 7.895 0 0 0 1.85 2.838 7.867 7.867 0 0 0 2.832 1.844c1.019.394 2.182.669 3.882.744 1.706.075 2.25.094 6.595.094s4.888-.019 6.595-.094c1.7-.075 2.869-.35 3.882-.744a8.184 8.184 0 0 0 4.682-4.682c.394-1.019.669-2.182.744-3.882.075-1.707.094-2.251.094-6.595s-.006-4.888-.081-6.595zm-2.882 13.065c-.069 1.563-.331 2.407-.55 2.969a5.31 5.31 0 0 1-3.038 3.038c-.563.219-1.413.481-2.969.55-1.688.075-2.194.094-6.464.094s-4.782-.019-6.464-.094c-1.563-.069-2.407-.331-2.969-.55a4.926 4.926 0 0 1-1.838-1.194 4.974 4.974 0 0 1-1.194-1.838c-.219-.563-.481-1.413-.55-2.969-.075-1.688-.094-2.194-.094-6.464s.019-4.782.094-6.464c.069-1.563.331-2.407.55-2.969a4.868 4.868 0 0 1 1.2-1.838A4.974 4.974 0 0 1 6.639 3.55c.563-.219 1.413-.481 2.969-.55 1.688-.075 2.194-.094 6.464-.094 4.276 0 4.782.019 6.464.094 1.563.069 2.407.331 2.969.55a4.914 4.914 0 0 1 1.838 1.194 4.974 4.974 0 0 1 1.194 1.838c.219.563.481 1.413.55 2.969.075 1.688.094 2.194.094 6.464s-.019 4.77-.094 6.458z" />
            <path
                d="M16.059 7.783c-4.538 0-8.22 3.682-8.22 8.22s3.682 8.22 8.22 8.22c4.539 0 8.22-3.682 8.22-8.22s-3.682-8.22-8.22-8.22zm0 13.552a5.333 5.333 0 0 1 0-10.664 5.333 5.333 0 0 1 0 10.664zM26.524 7.458a1.919 1.919 0 1 1-3.838 0 1.919 1.919 0 0 1 3.838 0z" />
        </symbol>
        <symbol id="icon-youtube" viewBox="0 0 32 32">
            <path
                d="M16.275 28.063c-3.569-.113-6.963-.2-10.356-.331a11.728 11.728 0 0 1-2.188-.313C2.394 27.106 1.468 26.3.994 24.981c-.381-1.063-.519-2.156-.619-3.269-.219-2.613-.219-5.225-.112-7.838.063-1.475.1-2.963.494-4.394.238-.856.525-1.694 1.219-2.313.731-.656 1.587-1.05 2.563-1.094 2.675-.131 5.344-.294 8.019-.319 3.6-.037 7.206.013 10.806.081 1.556.031 3.125.112 4.669.313 1.413.188 2.469.975 3.031 2.35.431 1.056.594 2.162.688 3.287.244 2.819.25 5.638.113 8.456-.069 1.431-.137 2.869-.544 4.262-.462 1.6-1.444 2.656-3.081 3.019-.637.137-1.3.188-1.95.212-3.4.119-6.794.225-10.012.325zm-3.456-7.107c2.85-1.475 5.669-2.938 8.544-4.431-2.869-1.5-5.688-2.969-8.544-4.463v8.894z" />
        </symbol>
        <symbol id="icon-vkontakte" viewBox="0 0 32 32">
            <path
                d="M27.014 22.375c-.809.507-4.098.657-4.894.079-.437-.317-.836-.714-1.216-1.092-.265-.264-.566-.393-.794-.679-.186-.235-.313-.512-.509-.743-.331-.389-.84-.719-1.243-.244-.606.714.096 2.117-.713 2.651-.271.179-.545.231-.884.205l-.751.034c-.441.009-1.14.012-1.641-.078-.56-.101-1.022-.407-1.527-.631-.961-.426-1.876-1.006-2.572-1.811-1.895-2.19-4.441-5.202-5.429-7.955-.204-.566-.74-1.685-.231-2.171.692-.503 4.092-.645 4.622.133.216.316.351.78.504 1.138.189.447.292.868.589 1.264.262.351.456.704.66 1.089.228.432.443.846.721 1.244.188.27.686.808 1 .848.767.098.719-1.767.662-2.222-.054-.439-.069-.904-.054-1.349.012-.38.047-.914-.178-1.224-.366-.506-1.182-.127-1.246-.806.135-.193.106-.364 1.007-.66a3.723 3.723 0 0 1 1.634-.188c.954.076 1.964-.182 2.884.127.879.296.743 1.545.714 2.294-.039 1.022.003 2.02 0 3.057-.001.473-.02.932.556.894.54-.036.595-.49.852-.865.359-.523.687-1.052 1.052-1.573.492-.704.64-1.494 1.103-2.215.166-.258.308-.822.563-1.026.193-.154.56-.088.794-.088h.556c.426.005.86.011 1.296.027.629.022 1.334-.115 1.959-.027 2.693.38-3.385 6.141-3.069 7.169.219.71 1.605 1.505 2.106 2.087.667.774 2.712 2.316 1.122 3.311z" />
        </symbol>
        <symbol id="icon-twitter" viewBox="0 0 32 32">
            <path
                d="M32 5.824a12.846 12.846 0 0 1-3.77 1.059 6.719 6.719 0 0 0 2.887-3.723 12.91 12.91 0 0 1-4.172 1.631 6.474 6.474 0 0 0-4.791-2.124c-3.623 0-6.563 3.014-6.563 6.732 0 .528.056 1.04.169 1.533-5.456-.281-10.293-2.959-13.533-7.036a6.858 6.858 0 0 0-.889 3.388 6.777 6.777 0 0 0 2.921 5.603 6.445 6.445 0 0 1-2.975-.84v.083c0 3.263 2.263 5.984 5.269 6.601a6.451 6.451 0 0 1-2.966.118c.836 2.674 3.259 4.621 6.133 4.673A12.962 12.962 0 0 1 0 26.312a18.279 18.279 0 0 0 10.064 3.022c12.077 0 18.679-10.257 18.679-19.153 0-.293-.006-.585-.017-.873A13.462 13.462 0 0 0 32 5.824z" />
        </symbol>
        <symbol id="icon-facebook" viewBox="0 0 32 32">
            <path
                d="M19.269 31.781c-.156.006-.256.019-.356.019-2.137 0-4.269-.006-6.406.006-.3 0-.381-.081-.381-.381.006-4.975.006-9.956.006-14.931v-.431H8.688V10.75h.338c.938 0 1.875-.006 2.813.006.238 0 .3-.069.3-.3a243.606 243.606 0 0 1 0-4.188c.006-.975.162-1.925.613-2.806.644-1.244 1.662-2.05 2.95-2.55C16.752.5 17.858.349 18.971.331c1.813-.025 3.625-.013 5.438-.019.169 0 .306-.006.306.231-.006 1.719-.006 3.438-.006 5.156 0 .019-.006.037-.031.119h-.344c-1.125 0-2.25-.006-3.375 0-.65 0-1.175.263-1.506.831-.1.169-.163.388-.163.588-.019 1.063 0 2.125-.012 3.188 0 .25.075.319.319.319 1.563-.012 3.125-.006 4.688-.006h.456c-.219 1.787-.431 3.537-.65 5.306h-4.819v15.738z" />
        </symbol>
    </defs>
</svg>